<mxfile host="65bd71144e" pages="5">
    <diagram name="Actors" id="Uj5xaqc0N7q7OmNPKLTP">
        <mxGraphModel dx="1476" dy="366" grid="1" gridSize="10" guides="1" tooltips="1" connect="1" arrows="1" fold="1" page="1" pageScale="1" pageWidth="850" pageHeight="1100" math="0" shadow="0">
            <root>
                <mxCell id="0"/>
                <mxCell id="1" parent="0"/>
                <mxCell id="eKUQsuH1OrGry_JKIRW3-1" value="Booking Doctor" style="text;html=1;align=center;verticalAlign=middle;whiteSpace=wrap;rounded=0;fontStyle=1;fontSize=25;" parent="1" vertex="1">
                    <mxGeometry x="300" y="40" width="260" height="30" as="geometry"/>
                </mxCell>
                <mxCell id="eKUQsuH1OrGry_JKIRW3-4" value="" style="edgeStyle=orthogonalEdgeStyle;rounded=0;orthogonalLoop=1;jettySize=auto;html=1;" parent="1" source="eKUQsuH1OrGry_JKIRW3-2" target="eKUQsuH1OrGry_JKIRW3-3" edge="1">
                    <mxGeometry relative="1" as="geometry"/>
                </mxCell>
                <mxCell id="eKUQsuH1OrGry_JKIRW3-6" value="" style="edgeStyle=orthogonalEdgeStyle;rounded=0;orthogonalLoop=1;jettySize=auto;html=1;" parent="1" source="eKUQsuH1OrGry_JKIRW3-2" target="eKUQsuH1OrGry_JKIRW3-5" edge="1">
                    <mxGeometry relative="1" as="geometry"/>
                </mxCell>
                <mxCell id="eKUQsuH1OrGry_JKIRW3-2" value="Actor" style="shape=umlActor;verticalLabelPosition=bottom;verticalAlign=top;html=1;outlineConnect=0;" parent="1" vertex="1">
                    <mxGeometry x="425" y="160" width="30" height="60" as="geometry"/>
                </mxCell>
                <mxCell id="eKUQsuH1OrGry_JKIRW3-3" value="Doctor" style="shape=umlActor;verticalLabelPosition=bottom;verticalAlign=top;html=1;outlineConnect=0;fontSize=20;" parent="1" vertex="1">
                    <mxGeometry x="-130" y="290" width="30" height="60" as="geometry"/>
                </mxCell>
                <mxCell id="eKUQsuH1OrGry_JKIRW3-5" value="Patient" style="shape=umlActor;verticalLabelPosition=bottom;verticalAlign=top;html=1;outlineConnect=0;fontSize=20;" parent="1" vertex="1">
                    <mxGeometry x="1000" y="290" width="30" height="60" as="geometry"/>
                </mxCell>
                <mxCell id="eKUQsuH1OrGry_JKIRW3-8" value="&lt;ul&gt;&lt;li style=&quot;text-align: left;&quot;&gt;List Slots&lt;/li&gt;&lt;li style=&quot;text-align: left;&quot;&gt;Add New Slot&lt;/li&gt;&lt;li style=&quot;text-align: left;&quot;&gt;List UpComing Appointments&lt;/li&gt;&lt;li style=&quot;text-align: left;&quot;&gt;Mark Appointment as Completed&lt;/li&gt;&lt;li style=&quot;text-align: left;&quot;&gt;Mark Appointment as Cancelled&lt;/li&gt;&lt;/ul&gt;" style="text;strokeColor=none;fillColor=none;html=1;whiteSpace=wrap;verticalAlign=middle;overflow=hidden;align=center;fontSize=20;" parent="1" vertex="1">
                    <mxGeometry x="-210" y="410" width="370" height="200" as="geometry"/>
                </mxCell>
                <mxCell id="eKUQsuH1OrGry_JKIRW3-14" value="&lt;ul&gt;&lt;li style=&quot;text-align: left;&quot;&gt;&lt;span style=&quot;background-color: transparent; color: light-dark(rgb(0, 0, 0), rgb(255, 255, 255));&quot;&gt;View Available Slots&lt;/span&gt;&lt;br&gt;&lt;/li&gt;&lt;li style=&quot;text-align: left;&quot;&gt;Book an Appointment on Free Slot&lt;/li&gt;&lt;/ul&gt;" style="text;strokeColor=none;fillColor=none;html=1;whiteSpace=wrap;verticalAlign=middle;overflow=hidden;align=center;fontSize=20;" parent="1" vertex="1">
                    <mxGeometry x="850" y="410" width="370" height="160" as="geometry"/>
                </mxCell>
            </root>
        </mxGraphModel>
    </diagram>
    <diagram id="X-sH2ErE4nEwR6ok2ZJJ" name="A- Doctor Availability Module">
        <mxGraphModel dx="835" dy="829" grid="1" gridSize="10" guides="1" tooltips="1" connect="1" arrows="1" fold="1" page="1" pageScale="1" pageWidth="850" pageHeight="1100" math="0" shadow="0">
            <root>
                <mxCell id="0"/>
                <mxCell id="1" parent="0"/>
                <mxCell id="j19hEm3TBlXu6-seOeiy-2" value="&lt;font style=&quot;font-size: 20px;&quot;&gt;Doctor Availability Module (Layered Architecture)&lt;/font&gt;" style="whiteSpace=wrap;html=1;shadow=0;dashed=0;fontSize=10;align=center;fillColor=#1A1A1A;strokeColor=#1A1A1A;fontColor=#FFFFFF;" parent="1" vertex="1">
                    <mxGeometry x="276" y="20" width="299" height="60" as="geometry"/>
                </mxCell>
                <mxCell id="j19hEm3TBlXu6-seOeiy-3" value="&lt;font style=&quot;font-size: 20px;&quot;&gt;&lt;b&gt;Presentation Layer&lt;/b&gt;&lt;/font&gt;" style="text;html=1;align=center;verticalAlign=middle;whiteSpace=wrap;rounded=0;" parent="1" vertex="1">
                    <mxGeometry x="335" y="120" width="210" height="30" as="geometry"/>
                </mxCell>
                <mxCell id="j19hEm3TBlXu6-seOeiy-4" value="Controllers/SlotController" style="text;html=1;align=center;verticalAlign=middle;whiteSpace=wrap;rounded=0;fontSize=20;" parent="1" vertex="1">
                    <mxGeometry x="390" y="170" width="120" height="30" as="geometry"/>
                </mxCell>
                <mxCell id="j19hEm3TBlXu6-seOeiy-5" value="&lt;font style=&quot;font-size: 20px;&quot;&gt;&lt;b&gt;Business Layer&lt;/b&gt;&lt;/font&gt;" style="text;html=1;align=center;verticalAlign=middle;whiteSpace=wrap;rounded=0;" parent="1" vertex="1">
                    <mxGeometry x="330" y="240" width="210" height="30" as="geometry"/>
                </mxCell>
                <mxCell id="j19hEm3TBlXu6-seOeiy-7" value="Services/SlotService" style="text;html=1;align=center;verticalAlign=middle;whiteSpace=wrap;rounded=0;fontSize=20;" parent="1" vertex="1">
                    <mxGeometry x="390" y="290" width="120" height="30" as="geometry"/>
                </mxCell>
                <mxCell id="j19hEm3TBlXu6-seOeiy-8" value="Models/Slot" style="text;html=1;align=center;verticalAlign=middle;whiteSpace=wrap;rounded=0;fontSize=20;" parent="1" vertex="1">
                    <mxGeometry x="380" y="330" width="120" height="30" as="geometry"/>
                </mxCell>
                <mxCell id="j19hEm3TBlXu6-seOeiy-11" value="" style="edgeStyle=orthogonalEdgeStyle;rounded=0;orthogonalLoop=1;jettySize=auto;html=1;" parent="1" source="j19hEm3TBlXu6-seOeiy-9" target="j19hEm3TBlXu6-seOeiy-10" edge="1">
                    <mxGeometry relative="1" as="geometry"/>
                </mxCell>
                <mxCell id="j19hEm3TBlXu6-seOeiy-9" value="Repositories/SlotRepository" style="text;html=1;align=center;verticalAlign=middle;whiteSpace=wrap;rounded=0;fontSize=20;" parent="1" vertex="1">
                    <mxGeometry x="365" y="440" width="120" height="30" as="geometry"/>
                </mxCell>
                <mxCell id="j19hEm3TBlXu6-seOeiy-10" value="&lt;font style=&quot;font-size: 20px;&quot;&gt;&lt;b&gt;Data Layer&lt;/b&gt;&lt;/font&gt;" style="text;html=1;align=center;verticalAlign=middle;whiteSpace=wrap;rounded=0;" parent="1" vertex="1">
                    <mxGeometry x="320" y="400" width="210" height="30" as="geometry"/>
                </mxCell>
                <mxCell id="j19hEm3TBlXu6-seOeiy-12" value="Controllers/SlotController" style="text;html=1;align=center;verticalAlign=middle;whiteSpace=wrap;rounded=0;fontSize=20;" parent="1" vertex="1">
                    <mxGeometry x="90" y="600" width="120" height="30" as="geometry"/>
                </mxCell>
                <mxCell id="j19hEm3TBlXu6-seOeiy-19" value="" style="edgeStyle=orthogonalEdgeStyle;rounded=0;orthogonalLoop=1;jettySize=auto;html=1;" parent="1" target="j19hEm3TBlXu6-seOeiy-18" edge="1">
                    <mxGeometry relative="1" as="geometry">
                        <mxPoint x="545" y="670" as="sourcePoint"/>
                    </mxGeometry>
                </mxCell>
                <mxCell id="j19hEm3TBlXu6-seOeiy-17" value="Services/SlotService" style="text;html=1;align=center;verticalAlign=middle;whiteSpace=wrap;rounded=0;fontSize=20;" parent="1" vertex="1">
                    <mxGeometry x="550" y="600" width="120" height="30" as="geometry"/>
                </mxCell>
                <mxCell id="j19hEm3TBlXu6-seOeiy-18" value="addSlot" style="text;html=1;align=center;verticalAlign=middle;whiteSpace=wrap;rounded=0;fontSize=20;" parent="1" vertex="1">
                    <mxGeometry x="485" y="750" width="120" height="30" as="geometry"/>
                </mxCell>
                <mxCell id="j19hEm3TBlXu6-seOeiy-20" value="List Slots" style="text;html=1;align=center;verticalAlign=middle;whiteSpace=wrap;rounded=0;fontSize=20;" parent="1" vertex="1">
                    <mxGeometry x="625" y="750" width="120" height="30" as="geometry"/>
                </mxCell>
                <mxCell id="j19hEm3TBlXu6-seOeiy-21" value="" style="edgeStyle=orthogonalEdgeStyle;rounded=0;orthogonalLoop=1;jettySize=auto;html=1;entryX=0.5;entryY=0;entryDx=0;entryDy=0;exitX=0.5;exitY=1;exitDx=0;exitDy=0;" parent="1" target="j19hEm3TBlXu6-seOeiy-20" edge="1">
                    <mxGeometry relative="1" as="geometry">
                        <mxPoint x="545" y="670" as="sourcePoint"/>
                        <mxPoint x="555" y="760" as="targetPoint"/>
                        <Array as="points">
                            <mxPoint x="685" y="670"/>
                        </Array>
                    </mxGeometry>
                </mxCell>
                <mxCell id="j19hEm3TBlXu6-seOeiy-23" value="" style="endArrow=classic;html=1;rounded=0;exitX=0.5;exitY=1;exitDx=0;exitDy=0;" parent="1" source="j19hEm3TBlXu6-seOeiy-17" edge="1">
                    <mxGeometry width="50" height="50" relative="1" as="geometry">
                        <mxPoint x="400" y="850" as="sourcePoint"/>
                        <mxPoint x="610" y="670" as="targetPoint"/>
                    </mxGeometry>
                </mxCell>
                <mxCell id="j19hEm3TBlXu6-seOeiy-24" value="" style="edgeStyle=orthogonalEdgeStyle;rounded=0;orthogonalLoop=1;jettySize=auto;html=1;" parent="1" target="j19hEm3TBlXu6-seOeiy-25" edge="1">
                    <mxGeometry relative="1" as="geometry">
                        <mxPoint x="60" y="660" as="sourcePoint"/>
                    </mxGeometry>
                </mxCell>
                <mxCell id="j19hEm3TBlXu6-seOeiy-25" value="addSlot" style="text;html=1;align=center;verticalAlign=middle;whiteSpace=wrap;rounded=0;fontSize=20;" parent="1" vertex="1">
                    <mxGeometry y="740" width="120" height="30" as="geometry"/>
                </mxCell>
                <mxCell id="j19hEm3TBlXu6-seOeiy-26" value="List Slots" style="text;html=1;align=center;verticalAlign=middle;whiteSpace=wrap;rounded=0;fontSize=20;" parent="1" vertex="1">
                    <mxGeometry x="140" y="740" width="120" height="30" as="geometry"/>
                </mxCell>
                <mxCell id="j19hEm3TBlXu6-seOeiy-27" value="" style="edgeStyle=orthogonalEdgeStyle;rounded=0;orthogonalLoop=1;jettySize=auto;html=1;entryX=0.5;entryY=0;entryDx=0;entryDy=0;exitX=0.5;exitY=1;exitDx=0;exitDy=0;" parent="1" target="j19hEm3TBlXu6-seOeiy-26" edge="1">
                    <mxGeometry relative="1" as="geometry">
                        <mxPoint x="60" y="660" as="sourcePoint"/>
                        <mxPoint x="70" y="750" as="targetPoint"/>
                        <Array as="points">
                            <mxPoint x="200" y="660"/>
                        </Array>
                    </mxGeometry>
                </mxCell>
                <mxCell id="j19hEm3TBlXu6-seOeiy-28" value="" style="endArrow=classic;html=1;rounded=0;exitX=0.5;exitY=1;exitDx=0;exitDy=0;" parent="1" edge="1">
                    <mxGeometry width="50" height="50" relative="1" as="geometry">
                        <mxPoint x="125" y="620" as="sourcePoint"/>
                        <mxPoint x="125" y="660" as="targetPoint"/>
                    </mxGeometry>
                </mxCell>
            </root>
        </mxGraphModel>
    </diagram>
    <diagram name="B- Appointment Booking Module" id="W3GN4L1mm5saj4UXmLPY">
        <mxGraphModel dx="2102" dy="1244" grid="1" gridSize="10" guides="1" tooltips="1" connect="1" arrows="1" fold="1" page="1" pageScale="1" pageWidth="850" pageHeight="1100" math="0" shadow="0">
            <root>
                <mxCell id="j270SnznrPz_KhuB3uI5-0"/>
                <mxCell id="j270SnznrPz_KhuB3uI5-1" parent="j270SnznrPz_KhuB3uI5-0"/>
                <mxCell id="WKxwyLp-jp-ZxdTt55H9-5" value="" style="ellipse;whiteSpace=wrap;html=1;" parent="j270SnznrPz_KhuB3uI5-1" vertex="1">
                    <mxGeometry x="-185" y="100" width="1460" height="1250" as="geometry"/>
                </mxCell>
                <mxCell id="JlpWlrA5JRyuCkOGPSDg-0" value="" style="ellipse;whiteSpace=wrap;html=1;" parent="j270SnznrPz_KhuB3uI5-1" vertex="1">
                    <mxGeometry x="70" y="110" width="970" height="850" as="geometry"/>
                </mxCell>
                <mxCell id="WGWI52DquEo9eSg284ff-4" value="" style="ellipse;whiteSpace=wrap;html=1;" parent="j270SnznrPz_KhuB3uI5-1" vertex="1">
                    <mxGeometry x="240" y="160" width="560" height="640" as="geometry"/>
                </mxCell>
                <mxCell id="WGWI52DquEo9eSg284ff-2" value="" style="ellipse;whiteSpace=wrap;html=1;" parent="j270SnznrPz_KhuB3uI5-1" vertex="1">
                    <mxGeometry x="400" y="390" width="240" height="230" as="geometry"/>
                </mxCell>
                <mxCell id="j270SnznrPz_KhuB3uI5-2" value="&lt;font style=&quot;font-size: 20px;&quot;&gt;Appointment Booking Module (Clean Architecture)&lt;/font&gt;" style="whiteSpace=wrap;html=1;shadow=0;dashed=0;fontSize=10;align=center;fillColor=#1A1A1A;strokeColor=#1A1A1A;fontColor=#FFFFFF;" parent="j270SnznrPz_KhuB3uI5-1" vertex="1">
                    <mxGeometry x="276" y="20" width="299" height="60" as="geometry"/>
                </mxCell>
                <mxCell id="WGWI52DquEo9eSg284ff-1" value="&lt;font style=&quot;font-size: 17px;&quot;&gt;Appointment Entities&lt;/font&gt;" style="rounded=0;whiteSpace=wrap;html=1;" parent="j270SnznrPz_KhuB3uI5-1" vertex="1">
                    <mxGeometry x="465" y="440" width="120" height="60" as="geometry"/>
                </mxCell>
                <mxCell id="WGWI52DquEo9eSg284ff-3" value="&lt;font style=&quot;font-size: 17px;&quot;&gt;Appointment Repository Interface&lt;/font&gt;" style="rounded=0;whiteSpace=wrap;html=1;" parent="j270SnznrPz_KhuB3uI5-1" vertex="1">
                    <mxGeometry x="465" y="530" width="120" height="60" as="geometry"/>
                </mxCell>
                <mxCell id="QD_mlYW_1hwSHaym2dd9-2" value="" style="edgeStyle=orthogonalEdgeStyle;rounded=0;orthogonalLoop=1;jettySize=auto;html=1;" parent="j270SnznrPz_KhuB3uI5-1" source="WGWI52DquEo9eSg284ff-5" target="QD_mlYW_1hwSHaym2dd9-1" edge="1">
                    <mxGeometry relative="1" as="geometry"/>
                </mxCell>
                <mxCell id="WGWI52DquEo9eSg284ff-5" value="&lt;font style=&quot;font-size: 17px;&quot;&gt;BookAppointment UseCase&lt;/font&gt;" style="rounded=0;whiteSpace=wrap;html=1;" parent="j270SnznrPz_KhuB3uI5-1" vertex="1">
                    <mxGeometry x="310" y="310" width="175" height="60" as="geometry"/>
                </mxCell>
                <mxCell id="WGWI52DquEo9eSg284ff-6" value="&lt;font style=&quot;font-size: 17px;&quot;&gt;ViewAvailableSlots&lt;/font&gt;&lt;div&gt;&lt;font style=&quot;font-size: 17px;&quot;&gt;Use Case&lt;/font&gt;&lt;/div&gt;" style="rounded=0;whiteSpace=wrap;html=1;" parent="j270SnznrPz_KhuB3uI5-1" vertex="1">
                    <mxGeometry x="570" y="310" width="180" height="60" as="geometry"/>
                </mxCell>
                <mxCell id="WKxwyLp-jp-ZxdTt55H9-0" value="&lt;font style=&quot;font-size: 17px;&quot;&gt;Appointment Reposity&lt;/font&gt;" style="rounded=0;whiteSpace=wrap;html=1;" parent="j270SnznrPz_KhuB3uI5-1" vertex="1">
                    <mxGeometry x="370" y="815" width="200" height="90" as="geometry"/>
                </mxCell>
                <mxCell id="WKxwyLp-jp-ZxdTt55H9-1" value="&lt;font style=&quot;font-size: 17px;&quot;&gt;Appointment Model&lt;/font&gt;" style="rounded=0;whiteSpace=wrap;html=1;" parent="j270SnznrPz_KhuB3uI5-1" vertex="1">
                    <mxGeometry x="670" y="815" width="120" height="60" as="geometry"/>
                </mxCell>
                <mxCell id="WKxwyLp-jp-ZxdTt55H9-2" value="&lt;b&gt;&lt;font style=&quot;font-size: 15px; color: rgb(204, 0, 0);&quot;&gt;Domain Layer&lt;/font&gt;&lt;/b&gt;" style="text;html=1;align=center;verticalAlign=middle;whiteSpace=wrap;rounded=0;" parent="j270SnznrPz_KhuB3uI5-1" vertex="1">
                    <mxGeometry x="480" y="400" width="90" height="30" as="geometry"/>
                </mxCell>
                <mxCell id="WKxwyLp-jp-ZxdTt55H9-3" value="&lt;b&gt;&lt;font style=&quot;font-size: 15px; color: rgb(204, 0, 0);&quot;&gt;UseCases Layer&lt;/font&gt;&lt;/b&gt;" style="text;html=1;align=center;verticalAlign=middle;whiteSpace=wrap;rounded=0;" parent="j270SnznrPz_KhuB3uI5-1" vertex="1">
                    <mxGeometry x="480" y="190" width="90" height="30" as="geometry"/>
                </mxCell>
                <mxCell id="WKxwyLp-jp-ZxdTt55H9-4" value="&lt;b&gt;&lt;font style=&quot;font-size: 15px; color: rgb(204, 0, 0);&quot;&gt;Infrastructure Layer&lt;/font&gt;&lt;/b&gt;" style="text;html=1;align=center;verticalAlign=middle;whiteSpace=wrap;rounded=0;" parent="j270SnznrPz_KhuB3uI5-1" vertex="1">
                    <mxGeometry x="600" y="130" width="130" height="50" as="geometry"/>
                </mxCell>
                <mxCell id="WKxwyLp-jp-ZxdTt55H9-6" value="&lt;b&gt;&lt;font style=&quot;font-size: 15px; color: rgb(204, 0, 0);&quot;&gt;UI Layer&lt;/font&gt;&lt;/b&gt;" style="text;html=1;align=center;verticalAlign=middle;whiteSpace=wrap;rounded=0;" parent="j270SnznrPz_KhuB3uI5-1" vertex="1">
                    <mxGeometry x="1060" y="440" width="130" height="50" as="geometry"/>
                </mxCell>
                <mxCell id="WKxwyLp-jp-ZxdTt55H9-7" value="&lt;span style=&quot;font-size: 17px;&quot;&gt;Appointment Controller&lt;/span&gt;" style="rounded=0;whiteSpace=wrap;html=1;" parent="j270SnznrPz_KhuB3uI5-1" vertex="1">
                    <mxGeometry x="1050" y="550" width="180" height="60" as="geometry"/>
                </mxCell>
                <mxCell id="WKxwyLp-jp-ZxdTt55H9-8" value="&lt;span style=&quot;font-size: 17px;&quot;&gt;Slot Controller&lt;/span&gt;" style="rounded=0;whiteSpace=wrap;html=1;" parent="j270SnznrPz_KhuB3uI5-1" vertex="1">
                    <mxGeometry x="1050" y="640" width="180" height="60" as="geometry"/>
                </mxCell>
                <mxCell id="QD_mlYW_1hwSHaym2dd9-1" value="&lt;font style=&quot;font-size: 17px;&quot;&gt;Fire Event of Confirmation&lt;/font&gt;" style="rounded=0;whiteSpace=wrap;html=1;" parent="j270SnznrPz_KhuB3uI5-1" vertex="1">
                    <mxGeometry x="260" y="410" width="135" height="50" as="geometry"/>
                </mxCell>
            </root>
        </mxGraphModel>
    </diagram>
    <diagram id="EiiA6ceXrb89cSkukrEp" name="C- Appointment Confirmation">
        <mxGraphModel dx="626" dy="366" grid="1" gridSize="10" guides="1" tooltips="1" connect="1" arrows="1" fold="1" page="1" pageScale="1" pageWidth="850" pageHeight="1100" math="0" shadow="0">
            <root>
                <mxCell id="0"/>
                <mxCell id="1" parent="0"/>
                <mxCell id="4CxQro6bld0Tk60CRJKM-1" value="&lt;font style=&quot;font-size: 20px;&quot;&gt;Appointment Confirmation Module (Simple Architecture)&lt;/font&gt;" style="whiteSpace=wrap;html=1;shadow=0;dashed=0;fontSize=10;align=center;fillColor=#1A1A1A;strokeColor=#1A1A1A;fontColor=#FFFFFF;" parent="1" vertex="1">
                    <mxGeometry x="270" y="30" width="299" height="60" as="geometry"/>
                </mxCell>
                <mxCell id="4CxQro6bld0Tk60CRJKM-2" value="Notification" style="rounded=0;whiteSpace=wrap;html=1;" parent="1" vertex="1">
                    <mxGeometry x="360" y="200" width="120" height="60" as="geometry"/>
                </mxCell>
                <mxCell id="4CxQro6bld0Tk60CRJKM-3" value="ListenToConfirmationAppointment" style="rounded=0;whiteSpace=wrap;html=1;" parent="1" vertex="1">
                    <mxGeometry x="320" y="310" width="210" height="80" as="geometry"/>
                </mxCell>
            </root>
        </mxGraphModel>
    </diagram>
    <diagram id="85-Se30D-hgAAOEWUIOP" name="D- Doctor Appointment Managment">
        <mxGraphModel dx="1476" dy="366" grid="1" gridSize="10" guides="1" tooltips="1" connect="1" arrows="1" fold="1" page="1" pageScale="1" pageWidth="850" pageHeight="1100" math="0" shadow="0">
            <root>
                <mxCell id="0"/>
                <mxCell id="1" parent="0"/>
                <mxCell id="SgwjVtaK0joFU57eE6TA-1" value="&lt;font style=&quot;font-size: 20px;&quot;&gt;Doctor Appointment Management (Hexagonal Architecture)&lt;/font&gt;" style="whiteSpace=wrap;html=1;shadow=0;dashed=0;fontSize=10;align=center;fillColor=#1A1A1A;strokeColor=#1A1A1A;fontColor=#FFFFFF;" parent="1" vertex="1">
                    <mxGeometry x="240" y="20" width="390" height="60" as="geometry"/>
                </mxCell>
                <mxCell id="SgwjVtaK0joFU57eE6TA-2" value="" style="rounded=0;whiteSpace=wrap;html=1;" parent="1" vertex="1">
                    <mxGeometry x="110" y="200" width="630" height="320" as="geometry"/>
                </mxCell>
                <mxCell id="SgwjVtaK0joFU57eE6TA-6" value="" style="edgeStyle=orthogonalEdgeStyle;rounded=0;orthogonalLoop=1;jettySize=auto;html=1;" parent="1" source="SgwjVtaK0joFU57eE6TA-3" target="SgwjVtaK0joFU57eE6TA-5" edge="1">
                    <mxGeometry relative="1" as="geometry"/>
                </mxCell>
                <mxCell id="SgwjVtaK0joFU57eE6TA-10" value="" style="edgeStyle=orthogonalEdgeStyle;rounded=0;orthogonalLoop=1;jettySize=auto;html=1;" parent="1" source="SgwjVtaK0joFU57eE6TA-3" target="SgwjVtaK0joFU57eE6TA-9" edge="1">
                    <mxGeometry relative="1" as="geometry"/>
                </mxCell>
                <mxCell id="SgwjVtaK0joFU57eE6TA-3" value="MarkAsCompleted" style="rounded=0;whiteSpace=wrap;html=1;" parent="1" vertex="1">
                    <mxGeometry x="360" y="300" width="120" height="60" as="geometry"/>
                </mxCell>
                <mxCell id="SgwjVtaK0joFU57eE6TA-4" value="MarkAsCancelled" style="rounded=0;whiteSpace=wrap;html=1;" parent="1" vertex="1">
                    <mxGeometry x="360" y="380" width="120" height="60" as="geometry"/>
                </mxCell>
                <mxCell id="SgwjVtaK0joFU57eE6TA-5" value="Check is Reserved ?" style="rounded=0;whiteSpace=wrap;html=1;" parent="1" vertex="1">
                    <mxGeometry x="510" y="300" width="120" height="60" as="geometry"/>
                </mxCell>
                <mxCell id="SgwjVtaK0joFU57eE6TA-7" value="MarkAsCompletedInput" style="rounded=0;whiteSpace=wrap;html=1;" parent="1" vertex="1">
                    <mxGeometry x="-70" y="280" width="170" height="60" as="geometry"/>
                </mxCell>
                <mxCell id="SgwjVtaK0joFU57eE6TA-8" value="MarkAsCancelledInput" style="rounded=0;whiteSpace=wrap;html=1;" parent="1" vertex="1">
                    <mxGeometry x="-70" y="430" width="170" height="60" as="geometry"/>
                </mxCell>
                <mxCell id="SgwjVtaK0joFU57eE6TA-9" value="Fire Event of Confirmation" style="rounded=0;whiteSpace=wrap;html=1;" parent="1" vertex="1">
                    <mxGeometry x="360" y="210" width="120" height="60" as="geometry"/>
                </mxCell>
            </root>
        </mxGraphModel>
    </diagram>
</mxfile>
